<svg width="32" height="32" viewBox="0 0 32 32" fill="none" xmlns="http://www.w3.org/2000/svg">
<path fill-rule="evenodd" clip-rule="evenodd" d="M9.168 20.1654C9.956 21.457 11.094 22.4987 12.45 23.1698C13.806 23.8409 15.3245 24.1138 16.8294 23.957C18.3342 23.8001 19.7638 23.2198 20.9522 22.2835C22.1407 21.3471 23.0393 20.093 23.544 18.6667H26.3307C25.8193 20.6431 24.7518 22.4314 23.2546 23.8193C21.7575 25.2072 19.8936 26.1366 17.8842 26.497C15.8747 26.8575 13.8041 26.6339 11.9179 25.8529C10.0317 25.0719 8.40909 23.7662 7.24267 22.0907L4 25.3334V17.3334H12L9.168 20.1654V20.1654ZM22.8333 11.8334C22.0449 10.5416 20.9065 9.49973 19.5501 8.82863C18.1937 8.15753 16.6748 7.88466 15.1696 8.04167C13.6644 8.19868 12.2345 8.77914 11.0458 9.71573C9.85706 10.6523 8.95817 11.9067 8.45333 13.3334H5.66667C6.17781 11.3562 7.24547 9.56712 8.74292 8.17852C10.2404 6.78992 12.1048 5.86008 14.1149 5.49933C16.1249 5.13858 18.1963 5.36208 20.0832 6.14329C21.9701 6.9245 23.5932 8.23064 24.76 9.90669L28 6.66669V14.6667H20L22.8333 11.8334Z" fill="#1DED91"/>
</svg>
