<svg width="32" height="32" viewBox="0 0 32 32" fill="none" xmlns="http://www.w3.org/2000/svg">
<path d="M6.66669 7.33341C6.66669 6.09574 7.15835 4.90875 8.03352 4.03358C8.90869 3.15841 10.0957 2.66675 11.3334 2.66675H16V12.0001H11.3334C10.0957 12.0001 8.90869 11.5084 8.03352 10.6332C7.15835 9.75808 6.66669 8.57109 6.66669 7.33341Z" stroke="#1DED91" stroke-width="2" stroke-linecap="round" stroke-linejoin="round"/>
<path d="M16 2.66675H20.6667C21.2795 2.66675 21.8863 2.78745 22.4525 3.02198C23.0187 3.2565 23.5332 3.60024 23.9665 4.03358C24.3998 4.46692 24.7436 4.98137 24.9781 5.54756C25.2126 6.11374 25.3333 6.72058 25.3333 7.33341C25.3333 7.94625 25.2126 8.55309 24.9781 9.11927C24.7436 9.68546 24.3998 10.1999 23.9665 10.6332C23.5332 11.0666 23.0187 11.4103 22.4525 11.6449C21.8863 11.8794 21.2795 12.0001 20.6667 12.0001H16V2.66675Z" stroke="#1DED91" stroke-width="2" stroke-linecap="round" stroke-linejoin="round"/>
<path d="M16 16.6667C16 16.0539 16.1207 15.447 16.3552 14.8808C16.5898 14.3147 16.9335 13.8002 17.3668 13.3669C17.8002 12.9335 18.3146 12.5898 18.8808 12.3553C19.447 12.1207 20.0538 12 20.6667 12C21.2795 12 21.8863 12.1207 22.4525 12.3553C23.0187 12.5898 23.5332 12.9335 23.9665 13.3669C24.3998 13.8002 24.7436 14.3147 24.9781 14.8808C25.2126 15.447 25.3333 16.0539 25.3333 16.6667C25.3333 17.2795 25.2126 17.8864 24.9781 18.4526C24.7436 19.0187 24.3998 19.5332 23.9665 19.9665C23.5332 20.3999 23.0187 20.7436 22.4525 20.9781C21.8863 21.2127 21.2795 21.3334 20.6667 21.3334C20.0538 21.3334 19.447 21.2127 18.8808 20.9781C18.3146 20.7436 17.8002 20.3999 17.3668 19.9665C16.9335 19.5332 16.5898 19.0187 16.3552 18.4526C16.1207 17.8864 16 17.2795 16 16.6667V16.6667Z" stroke="#1DED91" stroke-width="2" stroke-linecap="round" stroke-linejoin="round"/>
<path d="M6.66669 26.0001C6.66669 24.7624 7.15835 23.5754 8.03352 22.7003C8.90869 21.8251 10.0957 21.3334 11.3334 21.3334H16V26.0001C16 27.2378 15.5084 28.4248 14.6332 29.2999C13.758 30.1751 12.571 30.6668 11.3334 30.6668C10.0957 30.6668 8.90869 30.1751 8.03352 29.2999C7.15835 28.4248 6.66669 27.2378 6.66669 26.0001Z" stroke="#1DED91" stroke-width="2" stroke-linecap="round" stroke-linejoin="round"/>
<path d="M6.66669 16.6667C6.66669 15.429 7.15835 14.242 8.03352 13.3669C8.90869 12.4917 10.0957 12 11.3334 12H16V21.3334H11.3334C10.0957 21.3334 8.90869 20.8417 8.03352 19.9665C7.15835 19.0914 6.66669 17.9044 6.66669 16.6667Z" stroke="#1DED91" stroke-width="2" stroke-linecap="round" stroke-linejoin="round"/>
</svg>
